<svg width="32" height="32" viewBox="0 0 32 32" fill="none" xmlns="http://www.w3.org/2000/svg">
<path d="M26.8825 21.8304C26.8099 22.0355 26.7395 22.2557 26.6585 22.4722C25.9879 24.2878 24.97 25.8998 23.7349 27.3771C23.4965 27.6647 23.2187 27.9251 22.9319 28.1665C22.365 28.6463 21.7126 28.9362 20.9581 28.9627C20.3912 28.9809 19.8471 28.8779 19.3226 28.6645C18.9426 28.5094 18.5688 28.336 18.1836 28.196C16.9333 27.7419 15.6898 27.8017 14.46 28.2876C14.0165 28.4632 13.579 28.6569 13.1272 28.8091C12.6035 28.9846 12.0601 29.0558 11.5068 28.9513C11.024 28.8613 10.6017 28.6365 10.2096 28.3466C9.72299 27.9864 9.31431 27.5474 8.93211 27.0827C7.12254 24.8758 5.90783 22.3806 5.32129 19.5856C5.06851 18.3838 4.94742 17.1721 5.02159 15.9438C5.10862 14.471 5.45071 13.0686 6.23781 11.8047C7.22546 10.2161 8.61878 9.17547 10.4518 8.74635C11.5545 8.48676 12.6269 8.59271 13.6782 8.99762C14.2314 9.20953 14.7862 9.41917 15.3417 9.6273C15.8533 9.81953 16.3626 9.81953 16.875 9.62351C17.4419 9.40706 18.0095 9.19136 18.5786 8.98021C19.1621 8.76754 19.7555 8.59347 20.3746 8.54428C21.3009 8.46935 22.2046 8.58969 23.084 8.88409C24.3305 9.3011 25.3446 10.039 26.1106 11.1137C26.131 11.1432 26.1537 11.1758 26.1688 11.1992C24.2374 12.5456 23.1377 14.3242 23.2974 16.7324C23.4586 19.1421 24.7558 20.7723 26.8825 21.8304ZM16.0485 8.24609C16.6184 8.26122 17.1664 8.15148 17.6939 7.94184C20.0998 6.98673 21.3577 4.44152 21.3198 2.49496C21.3168 2.3383 21.3062 2.18164 21.2994 2C21.0519 2.03708 20.8264 2.05449 20.6099 2.10898C18.8533 2.53962 17.5017 3.51971 16.6131 5.10677C16.0932 6.03615 15.8041 7.02306 15.8926 8.10153C15.8987 8.21581 15.9403 8.24457 16.0485 8.24609Z" fill="black"/>
</svg>
