<svg width="165" height="27" viewBox="0 0 165 27" fill="none" xmlns="http://www.w3.org/2000/svg">
<path d="M69.844 7.062H72.32L72.815 8.39C73.9662 7.28761 75.4932 6.66385 77.087 6.64501C77.7814 6.57818 78.4806 6.70603 79.1064 7.01424C79.7322 7.32245 80.2597 7.79883 80.63 8.39C81.7599 7.28724 83.2713 6.66229 84.85 6.64501C87.585 6.64501 89.07 8.20799 89.07 11.672V20.79H85.58V11.881C85.58 10.344 85.007 9.69301 83.392 9.69301C82.6455 9.6951 81.9051 9.82741 81.204 10.084V20.791H77.713V11.882C77.713 10.345 77.166 9.69399 75.551 9.69399C74.7971 9.70758 74.05 9.83955 73.337 10.085V20.792H69.846L69.844 7.062Z" fill="black"/>
<path d="M104.414 14.015C104.414 18.443 101.992 21.179 97.928 21.179C93.864 21.179 91.414 18.443 91.414 14.015C91.414 9.508 93.914 6.64299 97.926 6.64299C101.938 6.64299 104.414 9.456 104.414 14.015ZM94.984 14.041C94.984 16.959 95.948 18.469 97.928 18.469C99.934 18.469 100.846 16.958 100.846 14.041C100.846 10.993 99.908 9.35201 97.928 9.35201C95.977 9.35201 94.987 10.993 94.987 14.041H94.984Z" fill="black"/>
<path d="M106.928 20.371V1.35399L110.419 0.728992V7.52901C111.359 6.94977 112.441 6.64301 113.545 6.64299C117.245 6.64299 118.963 9.17001 118.963 13.572C118.963 18.339 116.358 21.178 112.034 21.178C110.299 21.2002 108.572 20.9273 106.928 20.371ZM110.419 18.471C110.833 18.5299 111.252 18.556 111.67 18.549C113.858 18.549 115.421 17.168 115.421 13.649C115.421 10.992 114.769 9.45501 112.295 9.45501C111.657 9.46414 111.025 9.56966 110.419 9.76799V18.471Z" fill="black"/>
<path d="M120.563 2.57901L123.116 0L125.669 2.57901L123.116 5.13199L120.563 2.57901ZM124.863 7.06V20.788H121.372V7.05899L124.863 7.06Z" fill="black"/>
<path d="M131.431 20.787H127.94V1.35399L131.431 0.728992V20.787Z" fill="black"/>
<path d="M133.702 2.57901L136.255 0L138.808 2.57901L136.255 5.13199L133.702 2.57901ZM138.002 7.06V20.788H134.511V7.05899L138.002 7.06Z" fill="black"/>
<path d="M139.77 7.32L141.958 7.05999V4.29901L145.501 3.544V7.061H149.616V9.69299H145.502V15.659C145.502 17.795 146.049 18.186 147.065 18.186C147.842 18.1607 148.608 18.0021 149.331 17.717L150.138 20.166C148.907 20.8345 147.527 21.1838 146.126 21.182C143.235 21.182 141.958 19.41 141.958 15.894V9.694H139.77V7.32Z" fill="black"/>
<path d="M159.916 19.354C158.665 22.819 157.077 25.241 154.888 26.648L152.726 24.668C154.02 23.6175 155.099 22.3273 155.904 20.868L151.059 7.50399L154.524 6.56601L157.65 17.377L160.75 6.54L164.188 7.52999L159.916 19.354Z" fill="black"/>
<path d="M2.286 20.777H0V1.38698L2.286 0.886978V20.777ZM8.403 6.70598L10.193 8.006L5.793 13.574L10.893 19.745L9.127 21.125L3.112 13.699L8.403 6.70598Z" fill="black"/>
<path d="M12.913 17.088C12.8753 16.4875 12.9807 15.8866 13.2206 15.3348C13.4606 14.783 13.8281 14.296 14.293 13.914C15.4709 13.1108 16.8845 12.7265 18.307 12.823H20.943V11.945C20.943 9.82167 20.0146 8.75998 18.158 8.75998C17.5246 8.76489 16.8944 8.84922 16.282 9.01099C15.6643 9.16542 15.0619 9.37529 14.482 9.638L13.81 8.00699C14.5022 7.61714 15.2416 7.31771 16.01 7.116C16.7598 6.91207 17.5329 6.80653 18.31 6.802C21.526 6.802 23.1337 8.533 23.133 11.995V20.774H21.444L21.17 19.274C20.516 19.811 19.7821 20.2425 18.995 20.553C18.2963 20.8397 17.5501 20.9927 16.795 21.004C16.2749 21.0333 15.7543 20.9561 15.2651 20.7771C14.7759 20.5981 14.3284 20.321 13.95 19.963C13.5937 19.5784 13.3185 19.126 13.1411 18.6327C12.9636 18.1394 12.8874 17.6154 12.917 17.092L12.913 17.088ZM17.209 19.149C17.5389 19.147 17.8673 19.1047 18.187 19.023C18.5322 18.9371 18.8713 18.8282 19.202 18.697C19.5349 18.5655 19.8541 18.4018 20.155 18.208C20.4374 18.0274 20.7028 17.8215 20.948 17.593V14.383H18.571C17.6479 14.3093 16.7251 14.5287 15.934 15.01C15.6466 15.2494 15.4212 15.5545 15.2769 15.8995C15.1326 16.2446 15.0736 16.6193 15.105 16.992C15.0603 17.2805 15.0833 17.5754 15.1722 17.8535C15.261 18.1316 15.4133 18.3852 15.6169 18.5943C15.8206 18.8035 16.07 18.9625 16.3456 19.0587C16.6212 19.155 16.9154 19.1859 17.205 19.149" fill="black"/>
<path d="M29.488 20.777H27.201V1.38698L29.488 0.886978V20.777ZM35.602 6.70598L37.392 8.006L32.992 13.574L38.086 19.745L36.322 21.125L30.306 13.699L35.602 6.70598Z" fill="black"/>
<path d="M40.114 17.088C40.0766 16.4876 40.1821 15.8869 40.4218 15.3351C40.6615 14.7834 41.0286 14.2964 41.493 13.914C42.6713 13.1108 44.0852 12.7266 45.508 12.823H48.143V11.945C48.143 9.82167 47.2153 8.75998 45.36 8.75998C44.726 8.76476 44.095 8.84909 43.482 9.01099C42.8643 9.16506 42.2618 9.37493 41.682 9.638L41.01 8.00699C41.7023 7.61724 42.4416 7.31781 43.21 7.116C43.9598 6.91207 44.733 6.80653 45.51 6.802C48.7247 6.802 50.3323 8.533 50.333 11.995V20.774H48.642L48.368 19.274C47.7141 19.8111 46.9803 20.2427 46.193 20.553C45.4943 20.8396 44.7481 20.9926 43.993 21.004C43.4726 21.0335 42.9516 20.9564 42.462 20.7774C41.9725 20.5984 41.5246 20.3212 41.146 19.963C40.7901 19.5783 40.5153 19.1258 40.3381 18.6325C40.161 18.1392 40.0851 17.6153 40.115 17.092L40.114 17.088ZM44.407 19.149C44.7369 19.1469 45.0653 19.1046 45.385 19.023C45.7302 18.9371 46.0693 18.8282 46.4 18.697C46.7328 18.5653 47.052 18.4015 47.353 18.208C47.6345 18.027 47.8992 17.8212 48.144 17.593V14.383H45.769C44.8459 14.3093 43.9231 14.5287 43.132 15.01C42.8445 15.2492 42.6189 15.5543 42.4746 15.8994C42.3303 16.2445 42.2714 16.6193 42.303 16.992C42.2583 17.2805 42.2813 17.5754 42.3702 17.8535C42.459 18.1316 42.6113 18.3852 42.8149 18.5943C43.0186 18.8035 43.268 18.9625 43.5436 19.0587C43.8192 19.155 44.1134 19.1859 44.403 19.149" fill="black"/>
<path d="M59.532 6.82998C60.3651 6.78774 61.197 6.9325 61.9669 7.25366C62.7367 7.57482 63.4249 8.06424 63.981 8.686C65.1499 10.2025 65.7249 12.0935 65.598 14.004C65.7246 15.8886 65.1553 17.7542 63.998 19.247C62.8117 20.4199 61.2107 21.0778 59.5425 21.0778C57.8742 21.0778 56.2733 20.4199 55.087 19.247C53.9204 17.7583 53.3445 15.8912 53.47 14.004C53.3425 12.0917 53.9218 10.1992 55.098 8.686C55.6534 8.06634 56.3399 7.57822 57.1075 7.25717C57.8752 6.93612 58.7048 6.79019 59.536 6.82998H59.532ZM59.536 8.686C59.001 8.66022 58.4682 8.77097 57.9879 9.00784C57.5075 9.24471 57.0952 9.59991 56.79 10.04C56.0748 11.2331 55.7406 12.616 55.832 14.004C55.738 15.372 56.0729 16.7352 56.79 17.904C57.1226 18.3155 57.543 18.6475 58.0204 18.8755C58.4979 19.1035 59.0203 19.2219 59.5495 19.2219C60.0786 19.2219 60.601 19.1035 61.0785 18.8755C61.556 18.6475 61.9764 18.3155 62.309 17.904C63.0245 16.7346 63.3586 15.3717 63.265 14.004C63.356 12.6163 63.0226 11.2337 62.309 10.04C61.9994 9.59804 61.5826 9.24192 61.0978 9.00509C60.6129 8.76826 60.0759 8.65848 59.537 8.686" fill="black"/>
</svg>
