<?xml version="1.0" encoding="utf-8"?>
<!-- Generator: Adobe Illustrator 24.2.3, SVG Export Plug-In . SVG Version: 6.00 Build 0)  -->
<svg version="1.1" id="레이어_1" xmlns="http://www.w3.org/2000/svg" xmlns:xlink="http://www.w3.org/1999/xlink" x="0px"
	 y="0px" viewBox="0 0 417 60" style="enable-background:new 0 0 417 60;" xml:space="preserve">
<style type="text/css">
	.st0{fill:#F5C61D;}
</style>
<g>
	<path class="st0" d="M51.5,53.7l-7.1-23.6l-7.1,23.6h-8L17.5,18.6h8.4l7.3,24.2l7.1-24.2h8l7.1,24.2l7.4-24.2h8.4L59.4,53.7H51.5z"
		/>
	<path class="st0" d="M104.2,48.2c-1.1,1.4-2.3,2.5-3.8,3.4c-1.5,0.9-3.1,1.5-4.9,2c-1.8,0.4-3.7,0.7-5.6,0.7
		c-2.8,0-5.4-0.5-7.6-1.4c-2.3-0.9-4.2-2.2-5.7-3.8c-1.6-1.6-2.8-3.5-3.6-5.7s-1.3-4.6-1.3-7.3c0-2.6,0.4-4.9,1.3-7.1
		c0.9-2.2,2.1-4.1,3.6-5.7c1.5-1.6,3.4-2.9,5.6-3.8c2.2-0.9,4.6-1.4,7.2-1.4c2.7,0,5.1,0.4,7.3,1.3c2.2,0.9,4,2.1,5.5,3.7
		c1.5,1.6,2.7,3.4,3.5,5.5c0.8,2.1,1.2,4.4,1.2,6.8v3.9H80.1c0.4,2.7,1.5,4.7,3.3,6.2c1.8,1.5,4,2.3,6.6,2.3c1.8,0,3.4-0.4,5-1.1
		c1.6-0.7,2.7-1.8,3.4-3.3h8.2C106.1,45.2,105.3,46.8,104.2,48.2z M95.8,26.7c-1.8-1.5-3.9-2.2-6.4-2.2c-1.2,0-2.3,0.2-3.3,0.6
		c-1,0.4-2,1-2.8,1.7s-1.5,1.6-2.1,2.6c-0.5,1-0.9,2.1-1.1,3.3h18.6C98.6,30.2,97.6,28.1,95.8,26.7z"/>
	<path class="st0" d="M168.4,53.7V30.9c0-2.1-0.5-3.7-1.5-4.8c-1-1.1-2.4-1.6-4.2-1.6c-1.7,0-3.2,0.5-4.3,1.6
		c-1.1,1.1-1.7,2.6-1.7,4.5v23h-8V30.1c0-0.9-0.2-1.7-0.5-2.4c-0.3-0.7-0.7-1.3-1.3-1.8c-0.5-0.5-1.1-0.9-1.8-1.1
		c-0.7-0.3-1.4-0.4-2.1-0.4c-1.6,0-3.1,0.5-4.2,1.6c-1.2,1.1-1.8,2.6-1.8,4.7v22.9h-8V18.6h7.7V21c0.8-0.9,2-1.6,3.4-2.1
		s2.9-0.8,4.5-0.8c2,0,3.9,0.4,5.6,1.1c1.7,0.7,3,1.7,3.8,2.9c1.1-1.3,2.5-2.3,4.2-3c1.7-0.7,3.7-1,6-1c3.7,0,6.7,1,8.8,3.1
		c2.1,2.1,3.2,5.1,3.2,9v23.5H168.4z"/>
	<path class="st0" d="M206.8,52.8c-2.2,0.9-4.7,1.4-7.5,1.4c-2.8,0-5.3-0.5-7.5-1.4c-2.3-0.9-4.2-2.2-5.7-3.8
		c-1.6-1.6-2.8-3.5-3.6-5.7c-0.8-2.2-1.3-4.6-1.3-7.1s0.4-4.9,1.3-7.1c0.8-2.2,2.1-4.1,3.6-5.7c1.6-1.6,3.5-2.9,5.7-3.8
		c2.3-0.9,4.8-1.4,7.5-1.4c2.8,0,5.3,0.5,7.5,1.4c2.2,0.9,4.1,2.2,5.7,3.8s2.8,3.5,3.7,5.7c0.9,2.2,1.3,4.6,1.3,7.1
		s-0.4,4.9-1.3,7.1c-0.9,2.2-2.1,4.1-3.7,5.7C210.9,50.6,209,51.9,206.8,52.8z M206.6,44.5c0.9-1,1.6-2.3,2.1-3.7
		c0.5-1.4,0.8-3,0.8-4.7c0-1.7-0.3-3.2-0.8-4.7s-1.2-2.7-2.1-3.7c-0.9-1-2-1.8-3.2-2.4c-1.3-0.6-2.7-0.9-4.2-0.9s-2.9,0.3-4.2,0.9
		c-1.3,0.6-2.3,1.4-3.2,2.4c-0.9,1-1.6,2.3-2.1,3.7c-0.5,1.4-0.8,3-0.8,4.7c0,1.7,0.3,3.3,0.8,4.7c0.5,1.4,1.2,2.6,2.1,3.7
		c0.9,1,2,1.8,3.2,2.4c1.3,0.6,2.7,0.9,4.2,0.9s2.9-0.3,4.2-0.8C204.7,46.3,205.8,45.5,206.6,44.5z"/>
	<path class="st0" d="M232.8,53.7l-15.4-35.1h8.8l10.4,24.7l10.2-24.7h8.9l-15.5,35.1H232.8z"/>
	<path class="st0" d="M288.2,48.2c-1.1,1.4-2.3,2.5-3.8,3.4c-1.5,0.9-3.1,1.5-4.9,2c-1.8,0.4-3.7,0.7-5.6,0.7
		c-2.8,0-5.4-0.5-7.6-1.4c-2.3-0.9-4.2-2.2-5.7-3.8c-1.6-1.6-2.8-3.5-3.6-5.7c-0.8-2.2-1.3-4.6-1.3-7.3c0-2.6,0.4-4.9,1.3-7.1
		c0.9-2.2,2.1-4.1,3.6-5.7c1.5-1.6,3.4-2.9,5.6-3.8c2.2-0.9,4.6-1.4,7.2-1.4c2.7,0,5.1,0.4,7.3,1.3c2.2,0.9,4,2.1,5.5,3.7
		c1.5,1.6,2.7,3.4,3.5,5.5c0.8,2.1,1.2,4.4,1.2,6.8v3.9h-26.9c0.4,2.7,1.5,4.7,3.3,6.2c1.8,1.5,4,2.3,6.6,2.3c1.8,0,3.4-0.4,5-1.1
		c1.6-0.7,2.7-1.8,3.4-3.3h8.2C290,45.2,289.2,46.8,288.2,48.2z M279.8,26.7c-1.8-1.5-3.9-2.2-6.4-2.2c-1.2,0-2.3,0.2-3.3,0.6
		c-1,0.4-2,1-2.8,1.7s-1.5,1.6-2.1,2.6c-0.5,1-0.9,2.1-1.1,3.3h18.6C282.6,30.2,281.6,28.1,279.8,26.7z"/>
	<path class="st0" d="M313.1,53.7V5.4h8v48.2H313.1z"/>
	<path class="st0" d="M336.4,13.2c-1,0.9-2.2,1.4-3.7,1.4s-2.8-0.5-3.7-1.4c-1-0.9-1.5-2.1-1.5-3.5s0.5-2.6,1.5-3.5
		c1-0.9,2.2-1.4,3.7-1.4s2.8,0.5,3.7,1.4c1,0.9,1.5,2.1,1.5,3.5S337.3,12.3,336.4,13.2z M328.6,53.7V18.5h8.1v35.2H328.6z"/>
	<path class="st0" d="M347.6,53.8V24.9h-6.8v-6.4h6.8v-2c0-3.6,1-6.4,3-8.5c2-2.1,5-3.1,8.9-3.1h3.8v6.4h-3.8c-1.3,0-2.3,0.4-3,1.3
		c-0.7,0.9-1.1,2.2-1.1,3.9v2h7.9v6.4h-7.9v28.9H347.6z"/>
	<path class="st0" d="M396.7,48.2c-1.1,1.4-2.3,2.5-3.8,3.4c-1.5,0.9-3.1,1.5-4.9,2c-1.8,0.4-3.7,0.7-5.6,0.7
		c-2.8,0-5.4-0.5-7.6-1.4c-2.3-0.9-4.2-2.2-5.7-3.8c-1.6-1.6-2.8-3.5-3.6-5.7c-0.8-2.2-1.3-4.6-1.3-7.3c0-2.6,0.4-4.9,1.3-7.1
		c0.9-2.2,2.1-4.1,3.6-5.7c1.5-1.6,3.4-2.9,5.6-3.8c2.2-0.9,4.6-1.4,7.2-1.4c2.7,0,5.1,0.4,7.3,1.3c2.2,0.9,4,2.1,5.5,3.7
		c1.5,1.6,2.7,3.4,3.5,5.5c0.8,2.1,1.2,4.4,1.2,6.8v3.9h-26.9c0.4,2.7,1.5,4.7,3.3,6.2c1.8,1.5,4,2.3,6.6,2.3c1.8,0,3.4-0.4,5-1.1
		c1.6-0.7,2.7-1.8,3.4-3.3h8.2C398.6,45.2,397.8,46.8,396.7,48.2z M388.3,26.7c-1.8-1.5-3.9-2.2-6.4-2.2c-1.2,0-2.3,0.2-3.3,0.6
		c-1,0.4-2,1-2.8,1.7s-1.5,1.6-2.1,2.6c-0.5,1-0.9,2.1-1.1,3.3h18.6C391.1,30.2,390.1,28.1,388.3,26.7z"/>
</g>
</svg>
