<svg width="152" height="152" viewBox="0 0 152 152" fill="none" xmlns="http://www.w3.org/2000/svg">
<path d="M152 0H0V152H152V0Z" fill="#FAE100"/>
<path fill-rule="evenodd" clip-rule="evenodd" d="M117.992 46.626L79.7274 23.4347C78.5829 22.8211 77.3045 22.5 76.0059 22.5C74.7074 22.5 73.429 22.8211 72.2845 23.4347L34.0142 46.626C33.0567 47.2912 32.2652 48.168 31.701 49.1883C31.1368 50.2087 30.815 51.3452 30.7606 52.5098V99.5286C30.8148 100.693 31.1365 101.83 31.7008 102.85C32.265 103.87 33.0566 104.746 34.0142 105.411L72.2798 128.604C73.4243 129.217 74.7027 129.538 76.0012 129.538C77.2997 129.538 78.5781 129.217 79.7227 128.604L117.987 105.411C118.945 104.747 119.736 103.87 120.301 102.85C120.865 101.83 121.187 100.693 121.241 99.5286V52.5098C121.187 51.3455 120.866 50.2092 120.303 49.1889C119.739 48.1685 118.949 47.2916 117.992 46.626ZM108.626 70.4595L83.3899 86.0676C82.8796 86.3834 82.466 86.1359 82.466 85.5255V74.9033H68.4605C68.1705 74.9098 67.8948 75.0308 67.6936 75.2399C67.4925 75.449 67.3823 75.7292 67.387 76.0192V97.5784C67.387 98.1959 66.9722 98.4398 66.4608 98.1263L57.5437 92.6785C57.2708 92.488 57.0452 92.2374 56.8842 91.9461C56.7232 91.6548 56.6311 91.3305 56.6151 90.9981V67.0786C56.6006 66.2051 56.9331 65.3614 57.5397 64.7327C58.1463 64.104 58.9775 63.7415 59.851 63.7248H82.4672V52.8633C82.4672 52.3802 82.7924 52.1905 83.1884 52.4356L108.626 68.1698C108.852 68.2635 109.045 68.4223 109.182 68.6259C109.318 68.8296 109.39 69.0691 109.39 69.3141C109.39 69.559 109.318 69.7985 109.182 70.0021C109.045 70.2058 108.852 70.3645 108.626 70.4583V70.4595Z" fill="#007DFF"/>
</svg>
