<svg width="393" height="157" viewBox="0 0 393 157" fill="none" xmlns="http://www.w3.org/2000/svg">
<g clip-path="url(#clip0)">
<path d="M120.921 155.661H94.8211L82.0401 138.201C75.9659 140.011 69.6592 140.921 63.3211 140.901C54.4965 141.012 45.7503 139.232 37.6709 135.681C30.0891 132.318 23.3323 127.343 17.8711 121.101C12.2404 114.568 7.90385 107.023 5.09305 98.8696C-1.02841 80.5888 -1.02841 60.8116 5.09305 42.5308C7.90551 34.3779 12.2422 26.834 17.8721 20.3008C23.3343 14.0601 30.0912 9.08488 37.6722 5.72168C45.7847 2.27607 54.5081 0.5 63.3221 0.5C72.136 0.5 80.8594 2.27607 88.972 5.72168C96.5524 9.08577 103.309 14.0609 108.772 20.3008C114.401 26.8347 118.739 34.3784 121.553 42.5308C124.692 51.5869 126.244 61.1166 126.142 70.7007C126.142 83.1827 123.892 94.4028 119.392 104.361C115.28 113.822 108.877 122.111 100.762 128.48L120.921 155.661ZM88.16 111.561C93.0469 106.679 96.7963 100.779 99.1402 94.2808C101.882 86.7267 103.224 78.736 103.1 70.7007C103.17 63.7553 102.199 56.8386 100.22 50.1807C98.5089 44.3509 95.7324 38.8889 92.031 34.0708C88.6516 29.7046 84.3489 26.1394 79.4309 23.6299C74.4076 21.2017 68.9005 19.9404 63.3211 19.9404C57.7417 19.9404 52.2343 21.2017 47.211 23.6299C42.2922 26.1381 37.9895 29.7036 34.6111 34.0708C30.9077 38.8877 28.1305 44.3501 26.4209 50.1807C22.5798 63.591 22.5798 77.8103 26.4209 91.2207C28.1301 97.0511 30.9074 102.513 34.6111 107.33C37.9887 111.698 42.2916 115.263 47.211 117.771C54.1053 121.133 61.8851 122.235 69.4422 120.919L53.4222 99.1406H79.1612L88.16 111.561Z" stroke="#C6C6C6"/>
<path d="M258.979 139.459H230.899L221.179 128.3C216.212 132.366 210.537 135.478 204.439 137.48C197.659 139.79 190.54 140.947 183.379 140.901C177.068 140.942 170.788 140.032 164.749 138.2C159.265 136.572 154.115 133.982 149.539 130.55C145.325 127.377 141.854 123.322 139.369 118.669C136.864 113.867 135.595 108.516 135.679 103.1C135.674 95.672 138.073 88.4417 142.519 82.4904C147.078 76.1904 153.618 70.3401 162.139 64.9401C158.281 60.2627 155.072 55.0863 152.599 49.5505C150.337 44.418 149.172 38.8694 149.179 33.2604C149.178 28.9444 150.195 24.6892 152.149 20.8405C154.167 16.8316 156.985 13.2786 160.429 10.4006C164.151 7.29512 168.384 4.8588 172.939 3.20038C177.953 1.36262 183.259 0.447675 188.599 0.500185C193.488 0.477171 198.349 1.23678 202.999 2.75019C207.358 4.1434 211.418 6.34133 214.968 9.23017C218.366 12.0235 221.154 15.4854 223.159 19.4006C225.223 23.4693 226.273 27.9769 226.218 32.5392C226.176 36.4207 225.155 40.2291 223.249 43.6105C221.154 47.4299 218.584 50.9679 215.599 54.1403C212.454 57.5216 209.021 60.6233 205.339 63.4103C201.885 66.0505 198.279 68.4848 194.539 70.7004L219.019 94.2805C220.108 91.6164 221.01 88.8798 221.719 86.0905C222.515 82.8596 223.116 79.5836 223.519 76.2805H246.559C245.713 82.6642 244.297 88.9594 242.329 95.0905C240.43 101.089 237.864 106.855 234.679 112.28L258.979 139.459ZM175.639 80.2404C172.652 81.9373 169.821 83.895 167.179 86.0905C165.242 87.7014 163.545 89.5795 162.139 91.6691C161.032 93.3202 160.21 95.146 159.709 97.0695C159.303 98.6887 159.092 100.35 159.079 102.019C159.014 104.864 159.663 107.679 160.968 110.208C162.221 112.541 163.973 114.569 166.099 116.149C168.4 117.839 170.994 119.09 173.749 119.84C176.824 120.698 180.005 121.122 183.198 121.099C187.697 121.109 192.166 120.379 196.429 118.939C200.43 117.644 204.132 115.564 207.319 112.82L175.639 80.2404ZM174.379 44.4191C176.425 48.3969 178.9 52.1392 181.759 55.5793C184.639 54.1406 187.399 52.6111 190.039 50.9904C192.536 49.4795 194.859 47.6987 196.968 45.6804C198.834 43.9052 200.44 41.8753 201.739 39.6506C202.909 37.6578 203.53 35.3902 203.539 33.0793C203.539 28.5213 202.039 25.0118 199.039 22.5505C195.992 20.0749 192.163 18.7667 188.239 18.8605C183.317 18.8605 179.357 20.2705 176.359 23.0905C174.902 24.4234 173.746 26.0524 172.97 27.8683C172.194 29.6843 171.815 31.645 171.859 33.6193C171.916 37.3582 172.775 41.041 174.379 44.4191V44.4191Z" stroke="#C6C6C6"/>
<path d="M391.998 139.458H367.518L353.118 101.479H303.078L288.858 139.458H264.378L316.938 4.09961H339.438L391.998 139.458ZM345.918 82.3999L328.093 35.4185L310.273 82.3999H345.918Z" stroke="#C6C6C6"/>
</g>
<defs>
<clipPath id="clip0">
<rect width="392.729" height="156.16" fill="white"/>
</clipPath>
</defs>
</svg>
